<svg width="47" height="47" viewBox="0 0 47 47" fill="none" xmlns="http://www.w3.org/2000/svg">
<path fill-rule="evenodd" clip-rule="evenodd" d="M23.5 41.4922C13.5632 41.4922 5.50781 33.4368 5.50781 23.5C5.50781 13.5632 13.5632 5.50781 23.5 5.50781C33.4368 5.50781 41.4922 13.5632 41.4922 23.5C41.4922 33.4368 33.4368 41.4922 23.5 41.4922ZM23.5 40.207C32.7271 40.207 40.207 32.7271 40.207 23.5C40.207 14.2729 32.7271 6.79297 23.5 6.79297C14.2729 6.79297 6.79297 14.2729 6.79297 23.5C6.79297 32.7271 14.2729 40.207 23.5 40.207Z" fill="#DAD873"/>
<path fill-rule="evenodd" clip-rule="evenodd" d="M9.57676 17.3483C10.3467 15.5068 11.4516 14.4365 11.75 14.1337C12.0483 13.8312 12.4718 13.9788 12.7555 14.1337C13.0392 14.2889 20.1494 21.4107 20.4668 21.7683C20.7841 22.1259 21.1204 22.6595 20.2096 22.6595C19.2986 22.6595 10.3491 22.5813 9.57676 22.528C8.80419 22.4746 8.57617 22.024 8.57617 21.6392C8.57617 21.2544 8.80658 19.1899 9.57676 17.3483ZM18.1785 9.42566C20.0253 8.66797 21.3418 8.71772 21.7668 8.71478C22.1919 8.71185 22.3868 9.11557 22.4779 9.42566C22.5688 9.73593 22.6349 19.8602 22.6064 20.3374C22.5778 20.8147 22.5857 21.344 21.9416 20.6998C21.2974 20.0557 15.0244 13.6722 14.516 13.0884C14.0074 12.5043 14.1648 12.0244 14.437 11.7523C14.7091 11.4803 16.3317 10.1835 18.1787 9.42566H18.1785ZM29.468 9.57676C31.3095 10.3467 32.3798 11.4516 32.6826 11.75C32.9851 12.0483 32.8375 12.4718 32.6826 12.7555C32.5275 13.0392 25.4057 20.1494 25.048 20.4668C24.6904 20.7841 24.1569 21.1204 24.1569 20.2096C24.1569 19.2986 24.2351 10.3491 24.2883 9.57676C24.3417 8.80419 24.7923 8.57617 25.1771 8.57617C25.5619 8.57617 27.6264 8.80658 29.468 9.57676ZM37.3907 18.1785C38.1484 20.0253 38.0986 21.3418 38.1015 21.7668C38.1045 22.1919 37.7008 22.3868 37.3907 22.4779C37.0804 22.5688 26.9561 22.6349 26.479 22.6064C26.0016 22.5778 25.4723 22.5857 26.1165 21.9416C26.7606 21.2974 33.1441 15.0244 33.728 14.516C34.312 14.0074 34.7919 14.1648 35.064 14.437C35.3361 14.7091 36.6328 16.3317 37.3907 18.1787V18.1785ZM37.2396 29.6516C36.4696 31.4931 35.3647 32.5634 35.0664 32.8662C34.768 33.1687 34.3445 33.0211 34.0608 32.8662C33.7772 32.711 26.667 25.5893 26.3495 25.2316C26.0323 24.874 25.6959 24.3405 26.6067 24.3405C27.5177 24.3405 36.4672 24.4187 37.2396 24.4719C38.0121 24.5253 38.2402 24.9759 38.2402 25.3607C38.2402 25.7455 38.0097 27.81 37.2396 29.6516ZM28.6378 37.5743C26.7911 38.332 25.4745 38.2822 25.0495 38.2851C24.6245 38.2881 24.4295 37.8843 24.3384 37.5743C24.2476 37.264 24.1815 27.1397 24.2099 26.6625C24.2386 26.1852 24.2307 25.6559 24.8747 26.3001C25.5189 26.9442 31.792 33.3277 32.3003 33.9116C32.8089 34.4956 32.6516 34.9755 32.3793 35.2476C32.1072 35.5197 30.4846 36.8164 28.6376 37.5743H28.6378ZM17.3483 37.4232C15.5068 36.6532 14.4365 35.5483 14.1337 35.25C13.8312 34.9516 13.9788 34.5281 14.1337 34.2444C14.2889 33.9608 21.4107 26.8505 21.7683 26.5331C22.1259 26.2159 22.6595 25.8795 22.6595 26.7903C22.6595 27.7013 22.5813 36.6508 22.528 37.4232C22.4746 38.1957 22.024 38.4237 21.6392 38.4237C21.2544 38.4237 19.1899 38.1933 17.3483 37.4232ZM9.42566 28.8214C8.66797 26.9747 8.71772 25.6581 8.71478 25.2331C8.71185 24.8081 9.11557 24.6131 9.42566 24.522C9.73593 24.4311 19.8602 24.3651 20.3374 24.3935C20.8147 24.4222 21.344 24.4143 20.6998 25.0583C20.0557 25.7025 13.6722 31.9756 13.0884 32.4839C12.5043 32.9925 12.0244 32.8352 11.7523 32.5629C11.4803 32.2908 10.1835 30.6682 9.42566 28.8212V28.8214Z" fill="#DAD873"/>
</svg>
